<?xml version="1.0" encoding="UTF-8" standalone="no"?>
<!-- Created with Inkscape (http://www.inkscape.org/) -->

<svg
   xmlns:dc="http://purl.org/dc/elements/1.1/"
   xmlns:cc="http://creativecommons.org/ns#"
   xmlns:rdf="http://www.w3.org/1999/02/22-rdf-syntax-ns#"
   xmlns:svg="http://www.w3.org/2000/svg"
   xmlns="http://www.w3.org/2000/svg"
   xmlns:sodipodi="http://sodipodi.sourceforge.net/DTD/sodipodi-0.dtd"
   xmlns:inkscape="http://www.inkscape.org/namespaces/inkscape"
   width="64px"
   height="64px"
   id="svg2994"
   version="1.1"
   inkscape:version="0.48.3.1 r9886"
   sodipodi:docname="New document 1">
  <defs
     id="defs2996" />
  <sodipodi:namedview
     id="base"
     pagecolor="#ffffff"
     bordercolor="#666666"
     borderopacity="1.0"
     inkscape:pageopacity="0.0"
     inkscape:pageshadow="2"
     inkscape:zoom="9.0377085"
     inkscape:cx="15.89327"
     inkscape:cy="-58.624527"
     inkscape:current-layer="layer1"
     showgrid="true"
     inkscape:document-units="px"
     inkscape:grid-bbox="true"
     inkscape:window-width="1920"
     inkscape:window-height="1020"
     inkscape:window-x="0"
     inkscape:window-y="27"
     inkscape:window-maximized="1" />
  <metadata
     id="metadata2999">
    <rdf:RDF>
      <cc:Work
         rdf:about="">
        <dc:format>image/svg+xml</dc:format>
        <dc:type
           rdf:resource="http://purl.org/dc/dcmitype/StillImage" />
        <dc:title></dc:title>
      </cc:Work>
    </rdf:RDF>
  </metadata>
  <g
     id="layer1"
     inkscape:label="Layer 1"
     inkscape:groupmode="layer">
    <g
       transform="matrix(0.22487547,0,0,0.22484444,-22.511206,-142.49593)"
       id="g4659">
      <path
         transform="matrix(2.2804061,0,0,2.2804061,24.163065,-882.56928)"
         d="m 156.06857,727.34558 c 0,33.33404 -27.02258,60.35661 -60.356618,60.35661 -33.334037,0 -60.356613,-27.02257 -60.356613,-60.35661 0,-33.33404 27.022576,-60.35661 60.356613,-60.35661 33.334038,0 60.356618,27.02257 60.356618,60.35661 z"
         sodipodi:ry="60.356613"
         sodipodi:rx="60.356613"
         sodipodi:cy="727.34558"
         sodipodi:cx="95.711952"
         id="path4029"
         style="fill:#ffffff;stroke:#000000;stroke-width:2.15672493;stroke-linejoin:bevel;stroke-miterlimit:4;stroke-dasharray:none"
         sodipodi:type="arc" />
      <path
         style="fill:#000000"
         d="m 171.64641,878.60733 c -21.72635,-16.53826 -33.11418,-29.78439 -42.41695,-49.33858 -5.51252,-11.58716 -12.12669,-34.77171 -10.40964,-36.48874 1.04675,-1.04676 1.54966,-0.71222 13.88509,9.23673 7.47372,6.02781 33.00546,20.0892 44.29936,24.39747 16.69606,6.36905 40.60092,10.42822 61.61533,10.46264 19.11566,0.0314 19.19691,0.0696 12.4082,5.86759 -19.32103,16.50109 -41.20117,29.22818 -63.40975,36.88378 -11.12069,3.83348 -9.45453,3.93997 -15.97164,-1.02089 z"
         id="path3077-5"
         inkscape:connector-curvature="0"
         sodipodi:nodetypes="sssssssss" />
      <path
         sodipodi:nodetypes="sssssssss"
         inkscape:connector-curvature="0"
         id="path3213"
         d="m 171.64641,878.60733 c -21.72635,-16.53826 -33.11418,-29.78439 -42.41695,-49.33858 -5.51252,-11.58716 -12.12669,-34.77171 -10.40964,-36.48874 1.04675,-1.04676 1.54966,-0.71222 13.88509,9.23673 7.47372,6.02781 33.00546,20.0892 44.29936,24.39747 16.69606,6.36905 40.60092,10.42822 61.61533,10.46264 19.11566,0.0314 19.19691,0.0696 12.4082,5.86759 -19.32103,16.50109 -41.20117,29.22818 -63.40975,36.88378 -11.12069,3.83348 -9.45453,3.93997 -15.97164,-1.02089 z"
         style="fill:#000000" />
      <path
         style="fill:#000000"
         d="m 117.96903,765.70061 c 3.45936,-27.08468 9.2369,-43.56993 21.51993,-61.40346 7.27854,-10.56754 24.04988,-27.88786 26.3954,-27.25939 1.42988,0.38314 1.39162,0.98595 -1.05671,16.64322 -1.4834,9.48634 -0.895,38.62817 1.02085,50.5631 2.83227,17.64379 11.26935,40.37553 21.74679,58.5918 9.53064,16.57034 9.5381,16.65979 1.12256,13.67958 -23.95085,-8.48196 -45.91291,-21.06715 -63.64717,-36.47256 -8.88022,-7.71405 -8.13936,-6.21787 -7.10165,-14.34229 z"
         id="path3217"
         inkscape:connector-curvature="0"
         sodipodi:nodetypes="sssssssss" />
      <path
         style="fill:#000000"
         d="m 312.60408,673.12422 c 21.72632,16.53819 33.11419,29.78433 42.41698,49.33856 5.51249,11.58713 12.12669,34.77166 10.40961,36.48871 -1.04679,1.04675 -1.54964,0.71222 -13.88511,-9.23673 -7.47372,-6.02784 -33.00541,-20.08919 -44.2993,-24.39753 -16.69614,-6.36902 -40.60098,-10.42821 -61.61537,-10.46261 -19.11573,-0.0314 -19.19696,-0.0696 -12.40822,-5.86759 19.32103,-16.50103 41.20116,-29.22815 63.40977,-36.88375 11.12069,-3.83351 9.45448,-3.93995 15.97164,1.02094 z"
         id="path3077-5-1"
         inkscape:connector-curvature="0"
         sodipodi:nodetypes="sssssssss" />
      <path
         sodipodi:nodetypes="sssssssss"
         inkscape:connector-curvature="0"
         id="path3996"
         d="m 189.90573,662.81078 c 25.1857,-10.54645 42.35112,-13.78557 63.93695,-12.0649 12.79101,1.01959 36.17652,6.8838 36.80499,9.22935 0.38314,1.42991 -0.15803,1.69816 -14.9418,7.40648 -8.95711,3.45855 -33.90047,18.53898 -43.2785,26.16562 -13.86382,11.27473 -29.33159,29.94734 -39.86859,48.12914 -9.58502,16.53899 -9.65878,16.5902 -11.28559,7.81203 -4.62981,-24.98304 -4.71178,-50.29534 -0.23741,-73.35636 2.24047,-11.54752 1.31517,-10.15782 8.86995,-13.32136 z"
         style="fill:#000000" />
      <path
         style="fill:#000000"
         d="m 366.31431,785.02874 c -3.45938,27.08465 -9.23687,43.56993 -21.51992,61.40345 -7.27855,10.56759 -24.04992,27.88788 -26.39538,27.25943 -1.42993,-0.38314 -1.39165,-0.98594 1.05668,-16.64325 1.48335,-9.4863 0.895,-38.62812 -1.02083,-50.56311 -2.83231,-17.64381 -11.26935,-40.37556 -21.74682,-58.59175 -9.53065,-16.57033 -9.53811,-16.6598 -1.12253,-13.67964 23.9508,8.48198 45.91289,21.06721 63.64713,36.47262 8.88024,7.71403 8.13939,6.21783 7.10167,14.34225 z"
         id="path3077-5-3"
         inkscape:connector-curvature="0"
         sodipodi:nodetypes="sssssssss" />
      <path
         style="fill:#000000"
         d="m 296.17756,888.80606 c -25.18566,10.54646 -42.35107,13.78555 -63.93689,12.06494 -12.79107,-1.01965 -36.17652,-6.88385 -36.80497,-9.2294 -0.38318,-1.4299 0.15801,-1.69821 14.94181,-7.40652 8.95707,-3.45851 33.90042,-18.53889 43.27848,-26.16554 13.86378,-11.27479 29.33155,-29.94741 39.86855,-48.12925 9.58498,-16.5389 9.65871,-16.59007 11.28565,-7.81195 4.62981,24.98305 4.71169,50.29537 0.23732,73.35632 -2.24042,11.54756 -1.31509,10.15786 -8.86995,13.3214 z"
         id="path3077-5-17"
         inkscape:connector-curvature="0"
         sodipodi:nodetypes="sssssssss" />
      <g
         inkscape:label="Layer 1"
         id="layer1-5"
         transform="matrix(0.22784986,0,0,0.22784986,166.73159,671.16671)">
        <path
           inkscape:connector-curvature="0"
           style="fill:#000000;fill-opacity:1;stroke:none"
           d="m 294.1834,246.51995 c -0.76712,0.4367 -1.53868,0.91242 -2.29188,1.40909 -28.36561,22.73672 -27.28706,65.41898 -13.63086,96.03774 11.0081,28.54816 41.54069,56.18875 73.95638,46.0386 4.66993,-1.53012 8.85732,-4.32358 12.36856,-7.72628 28.57999,-31.14375 21.32413,-81.36232 -2.75958,-112.97336 -13.75379,-21.41128 -43.86182,-36.3235 -67.64262,-22.78579 z M 162.03492,321.3894 c -19.23256,11.2508 -23.49489,39.41627 -16.31429,59.71136 13.8343,40.42556 55.86819,76.92768 100.66864,67.37516 4.02548,-1.20398 7.78712,-3.17726 11.10734,-5.74415 23.54384,-18.64913 18.46572,-53.7925 4.41305,-76.66383 -17.88671,-30.52989 -53.74908,-57.44392 -90.7117,-48.38449 -3.36964,0.84447 -6.41554,2.09869 -9.16304,3.70595 z m 275.68244,-15.78986 c -32.61371,20.65316 -37.14366,67.08251 -23.07754,100.32883 8.05863,25.13061 36.89007,48.76844 63.75024,36.28975 35.8134,-20.36729 39.12425,-72.48944 21.82858,-106.20804 -9.83404,-23.18726 -37.45647,-42.66769 -62.50128,-30.41054 z M 146.62492,476.17683 c -14.41768,7.80472 -23.78155,24.19733 -20.41163,41.37481 9.04828,45.93144 61.47422,81.46928 107.33233,66.83525 18.87883,-6.57812 26.71589,-28.19726 22.18708,-46.49724 -9.77054,-39.09542 -50.25484,-68.3911 -90.30835,-66.45863 -6.72411,-0.0447 -13.15773,1.69179 -18.79943,4.74581 z m 189.86393,-13.57398 c -28.09807,15.60263 -48.78303,45.66472 -55.25771,76.97926 -5.9896,35.63832 -6.18146,73.36543 4.78333,108.10646 4.77173,26.73279 36.43975,43.03511 60.5781,29.90221 29.38015,-15.18358 43.27032,-48.79375 71.2284,-66.16677 22.35573,-17.20918 51.22986,-16.58847 77.76889,-20.40382 23.1027,-2.33206 47.23227,-19.66175 45.66154,-45.04322 -3.82097,-24.64431 -26.94284,-40.39857 -46.15091,-53.54674 -34.98802,-19.23563 -72.13976,-39.24291 -112.93248,-40.7844 -16.46576,-0.82581 -31.95685,3.33712 -45.67916,10.95702 z"
           id="path1575" />
      </g>
      <path
         inkscape:connector-curvature="0"
         id="path4649"
         d="m 223.12943,909.35396 c -29.8337,-4.65489 -54.72405,-17.20764 -75.68705,-38.17065 -25.83948,-25.83947 -39.55071,-58.76159 -39.56672,-95.00387 -0.0133,-30.07115 9.35672,-57.73306 27.82797,-82.153 5.4285,-7.17677 17.53819,-19.26954 24.93531,-24.90049 32.84766,-25.0048 74.67436,-33.59237 114.81639,-23.57333 47.28986,11.80308 85.4615,49.95463 97.54176,97.49044 5.36561,21.1137 5.35517,44.63134 -0.0294,66.24178 -8.10963,32.54705 -30.46808,63.10632 -59.21682,80.93685 -27.14073,16.83322 -60.38,23.85079 -90.62142,19.13227 z m 32.88047,-8.57044 c 11.79566,-1.43605 33.21439,-7.86248 43.60271,-13.08245 3.88759,-1.95346 4.16473,-2.6133 6.20625,-14.77662 2.8295,-16.858 3.52909,-33.05251 2.13826,-49.49747 -0.86676,-10.2484 -3.36954,-25.89832 -4.2946,-26.85416 -1.30372,-1.34712 -3.13397,0.87663 -9.82241,11.93415 -12.71807,21.02588 -29.62055,40.97299 -43.40192,51.21986 -14.02226,10.42598 -31.20893,20.32148 -45.4871,26.1899 -6.00839,2.4695 -9.81913,4.42547 -9.95045,5.10737 -0.24392,1.26654 2.76622,2.75568 9.74402,4.82044 17.07091,5.05135 35.64424,6.84074 51.26524,4.93898 l 0,0 z m -66.27993,-21.5539 c 17.44563,-6.27893 35.56045,-16.20104 51.86305,-28.40717 9.90006,-7.41242 14.58176,-11.95688 13.46721,-13.07245 -0.62755,-0.62812 -5.37786,-1.01889 -16.23221,-1.33527 -30.68595,-0.89443 -52.53216,-5.56494 -72.7445,-15.55207 -16.05306,-7.93198 -27.44367,-14.90036 -39.36682,-24.08326 -3.44115,-2.65027 -6.70268,-4.81867 -7.24785,-4.81867 -2.18205,0 -1.02359,7.42136 3.27466,20.97809 8.40293,26.50292 20.12607,43.08403 44.05648,62.31309 7.54481,6.06256 9.37906,7.21848 11.45452,7.21848 1.35915,0 6.5231,-1.45834 11.47546,-3.24077 l 0,0 z m 137.11436,-11.78525 c 7.16505,-6.91444 16.57514,-18.02779 20.87628,-24.65496 9.23201,-14.22459 15.11758,-31.40749 18.31712,-53.47673 1.27187,-8.77287 1.34926,-10.51188 0.53545,-12.03249 -2.75946,-5.15609 -28.01743,-23.37371 -43.74169,-31.54923 -11.03888,-5.73945 -27.45984,-12.45602 -30.95117,-12.65978 -2.35615,-0.13751 -2.6183,0.0164 -2.46605,1.44795 0.0937,0.881 2.94661,6.59706 6.33979,12.70236 12.48706,22.46771 20.64356,45.55781 22.92284,64.89178 1.38906,11.78271 1.20034,40.15091 -0.33757,50.7425 -0.72059,4.96277 -1.12833,9.49709 -0.90607,10.07628 0.79888,2.08185 2.74026,0.94982 9.41107,-5.48768 l 0,0 z m -79.28448,-42.71306 c 1.53625,-1.03271 4.68618,-3.97604 6.99983,-6.54074 7.60587,-8.43116 10.46405,-9.92763 22.35345,-11.70372 9.24825,-1.38155 13.39145,-4.56317 13.39145,-10.28348 0,-5.01861 -5.58596,-10.74017 -15.37219,-15.74534 -13.50173,-6.90547 -23.0409,-8.32579 -30.68982,-4.56951 -7.63414,3.74902 -12.80123,11.48132 -14.17877,21.21788 -1.14742,8.11006 0.24854,20.18393 2.90823,25.1536 2.40095,4.48621 9.74072,5.72964 14.58782,2.47131 l 0,0 z m -52.39457,-7.26065 c 0.22198,-0.35916 -0.82598,-2.98429 -2.32878,-5.83363 -1.5028,-2.84934 -4.82857,-9.15809 -7.3906,-14.01945 -8.23641,-15.62831 -14.47714,-32.09184 -17.73953,-46.79829 -3.49841,-15.7704 -4.22337,-46.7726 -1.50711,-64.4508 1.21945,-7.93661 1.11111,-9.66617 -0.60554,-9.66617 -1.30879,0 -9.37305,7.29967 -15.51714,14.04593 -18.60371,20.42702 -27.26521,39.66301 -31.75664,70.52705 -1.8697,12.84815 -2.32748,11.69403 8.11264,20.45283 16.25445,13.63677 36.75752,25.50798 58.08153,33.629 7.2528,2.76216 9.92285,3.29198 10.65117,2.11353 l 0,0 z m 24.64218,-12.82935 c 5.66436,-1.57295 7.24333,-9.16533 3.32641,-15.99491 -3.59979,-6.27664 -10.1247,-10.08065 -17.32855,-10.10253 -5.16159,-0.0157 -8.4624,1.73661 -9.94205,5.2779 -1.3981,3.34613 -1.27524,5.08503 0.65001,9.19962 4.29728,9.18403 14.22763,14.13763 23.29418,11.61992 l 0,0 z m 5.44329,-32.41783 c 4.51392,-3.12272 5.37795,-9.34759 2.21691,-15.97165 -3.72038,-7.79614 -10.72393,-13.02776 -17.64907,-13.18378 -4.99079,-0.11244 -7.69393,1.1643 -9.35385,4.418 -2.5841,5.06528 -1.52941,11.61842 2.78967,17.33299 6.06046,8.01858 16.18303,11.42606 21.99634,7.40444 l 0,0 z m 53.3982,-2.36217 c 3.3273,-3.3273 4.57447,-6.66091 4.58061,-12.2437 0.0115,-10.48927 -6.38005,-18.64266 -13.94584,-17.78988 -5.4304,0.61209 -9.30116,5.92944 -9.91895,13.62595 -0.84405,10.51499 5.19152,19.40571 13.1784,19.41252 2.70419,0.002 3.48076,-0.37987 6.10578,-3.00489 z m -28.21466,-12.03746 c 5.5911,-6.10096 4.92611,-17.83879 -1.48697,-26.24677 -3.91196,-5.12884 -11.7064,-7.19888 -15.77584,-4.18972 -7.3777,5.45544 -7.03254,20.59818 0.64995,28.51446 3.73145,3.84501 6.48016,5.03656 10.8309,4.69515 2.91681,-0.22888 3.86875,-0.68546 5.78196,-2.77312 z M 365.965,757.26386 c 0,-2.96977 -2.9792,-14.47964 -5.97749,-23.09353 -8.53327,-24.51543 -20.95576,-40.99195 -45.04193,-59.74117 -8.49268,-6.61089 -7.79326,-6.54627 -20.62133,-1.90496 -18.65478,6.74947 -40.31035,19.1614 -57.28497,32.833 -7.792,6.2758 -9.13906,7.83715 -7.58832,8.79555 0.47891,0.29599 7.44609,0.76311 15.48261,1.03806 27.08838,0.92677 48.9224,4.96118 65.50676,12.1041 16.08503,6.92786 33.8814,17.39018 47.30957,27.81287 6.38154,4.95323 8.2151,5.43445 8.2151,2.15608 z M 191.99782,743.56902 c 11.46576,-18.90507 24.77638,-35.62881 36.69854,-46.10884 8.42346,-7.40453 28.43984,-20.40873 41.58999,-27.02008 2.40734,-1.21031 7.6576,-3.50671 11.66727,-5.10312 7.35172,-2.92701 9.05806,-3.86295 9.05806,-4.9684 0,-2.7858 -20.36455,-8.152 -37.47666,-9.87536 -13.74743,-1.3845 -29.09006,0.25507 -43.70129,4.67008 -8.7278,2.63725 -24.31109,8.77197 -25.74512,10.13516 -1.57833,1.50037 -2.98514,7.25631 -4.8611,19.88914 -2.58532,17.4096 -2.11857,41.4139 1.18627,61.00853 1.40978,8.35877 2.04655,9.94808 3.64132,9.08839 0.68427,-0.36887 4.25849,-5.64085 7.94272,-11.7155 l 0,0 z"
         style="fill:#ff6300;fill-opacity:0.77403846;stroke:#000000;stroke-width:2.37305021;stroke-linejoin:bevel;stroke-miterlimit:4;stroke-dasharray:none" />
    </g>
  </g>
</svg>
